<svg width="440" height="326" viewBox="0 0 440 326" fill="none" xmlns="http://www.w3.org/2000/svg">
<path d="M272.708 156.501C239.748 140.871 217.278 136.001 182.768 155.661C164.708 165.951 145.098 170.051 124.568 165.701L98.2576 158.061C79.3776 152.581 59.5576 151.841 40.7876 157.791L10.8276 167.291C9.4576 167.721 6.4576 165.251 6.2576 164.011C6.0276 162.561 7.7476 159.891 9.4176 159.411L26.6676 154.411L16.6976 129.971C7.3476 126.791 2.6376 118.921 3.2276 109.561L4.26761 93.2907C4.74761 85.8007 10.9476 79.9707 18.4176 79.1507C32.9376 77.5707 51.8176 78.0207 54.2776 90.9507L56.6076 103.201L120.238 94.8807L128.908 57.6607C130.098 52.5507 129.928 47.6307 129.038 42.3807C122.338 34.1607 115.308 39.5007 114.498 28.5607C114.038 22.4307 116.948 17.2607 123.308 15.8607L162.458 7.2307C187.098 1.8007 239.918 -3.3993 260.558 2.8507C267.388 4.9207 276.918 15.5607 274.798 18.0207C273.978 18.9707 272.148 19.5507 269.478 20.4007L288.128 43.9407C326.648 34.0807 364.928 27.5807 404.768 24.0707C405.958 23.9707 407.278 27.7307 406.608 28.7107C405.938 29.6907 403.938 31.3607 402.678 31.5007L391.688 32.7007L383.508 50.0407C388.998 50.1907 392.848 50.1007 397.378 52.1307C401.908 54.1607 405.328 62.2907 402.088 66.8607L380.038 97.9707L356.278 134.131C351.208 141.841 345.278 148.401 338.938 154.801C361.248 144.991 384.048 142.621 406.288 150.011L434.198 159.281C435.608 159.751 437.038 162.771 436.878 164.201C436.698 165.741 433.558 167.641 431.808 167.051L403.118 157.311C385.978 151.491 367.008 152.601 350.238 159.101C320.238 170.741 301.788 170.291 272.728 156.511L272.708 156.501ZM207.938 58.8507L145.728 69.9607L142.598 69.1607C142.128 69.0407 142.028 66.9807 142.148 66.4107L148.798 35.9407C149.918 30.8007 153.438 27.6107 158.228 25.9507C190.958 14.6207 227.878 12.9907 262.668 13.1407C260.578 10.7307 257.038 8.42072 253.248 8.12072C222.638 5.77072 192.518 7.76071 162.518 14.3607L124.668 22.6807C123.278 22.9907 121.368 25.6507 121.588 26.9707C121.778 28.1007 123.478 30.3107 124.588 30.7207C133.728 34.0807 139.278 42.3607 137.118 52.3807L128.288 93.3407C152.948 89.6607 175.968 85.7707 199.748 80.6507L245.758 70.7507C249.638 63.4807 253.888 57.5407 259.398 52.5407L207.938 58.8607V58.8507ZM244.168 47.4207L279.768 45.1407L260.608 20.2707C240.728 19.7707 222.108 20.8607 201.358 23.0907L218.378 50.4807L244.168 47.4307V47.4207ZM150.188 61.9407L210.698 51.3707L193.368 24.0907L162.578 31.2507C159.738 32.5607 156.338 34.5507 155.678 37.4907L150.188 61.9407ZM375.328 50.6807L383.318 33.4407L353.328 37.7407L344.528 53.2707L375.338 50.6807H375.328ZM323.508 56.4507L335.798 54.9107L344.218 39.1207L309.778 45.9407L310.268 50.0407L323.508 56.4507ZM296.068 61.0007L299.038 54.6107C283.738 48.4907 262.078 54.1607 254.618 68.8107L296.068 61.0007ZM108.998 114.261C140.328 109.991 169.478 104.341 199.808 97.7407L278.748 80.5607C317.628 72.1007 356.008 66.4907 395.558 62.3407C395.818 59.6107 392.728 57.2107 389.688 57.2707C337.918 58.3507 267.948 73.0307 215.538 84.3307C156.648 97.0207 98.0476 106.371 38.2176 111.871C31.3276 112.501 26.9476 115.611 25.9276 123.171L108.998 114.271V114.261ZM327.888 115.861C337.028 112.781 344.648 107.951 354.568 107.031C348.618 110.981 343.288 113.881 337.408 116.351L309.298 128.211C293.668 134.801 277.418 137.671 260.508 141.951L277.918 150.291C289.408 155.791 301.668 159.491 314.638 159.151C320.128 159.011 324.958 155.171 329.648 152.541C336.468 146.581 342.938 140.571 348.058 132.801L389.168 70.3607C336.328 75.7707 285.978 86.7507 234.688 97.3807L151.668 114.591C109.848 123.261 68.3076 126.391 25.7576 130.501L34.0676 151.691C57.7176 142.751 82.5876 143.361 106.088 152.111C131.878 161.721 153.508 162.441 177.598 149.361C201.638 136.311 220.018 131.811 247.818 137.651C275.258 132.361 301.548 124.741 327.908 115.871L327.888 115.861ZM49.1976 103.981L46.5276 91.5007C45.1976 85.2907 27.4576 85.0707 16.9476 86.6407C10.6276 87.5807 10.6176 104.461 11.2976 114.831C11.5476 118.661 14.6276 122.321 17.6876 122.121C23.7376 104.661 32.3176 105.081 49.1976 103.981Z" fill="black"/>
<path d="M265.228 188.151C235.398 172.971 209.658 172.631 180.078 188.961C158.088 201.101 133.638 205.541 109.658 197.571L87.1676 190.091C71.3476 184.831 53.2476 185.191 37.3276 190.311C23.5576 194.741 5.28763 204.641 0.337635 198.481C-0.612365 197.301 0.567615 193.871 2.31762 193.301L28.8176 184.721C52.4476 175.531 77.5276 177.001 100.878 186.141C129.948 197.521 150.638 195.101 177.258 181.111C208.978 164.441 236.928 164.431 268.468 180.691C293.178 193.431 314.848 198.181 341.188 186.901C364.798 176.791 389.948 175.281 413.778 185.521L436.998 193.211C438.378 193.671 439.758 196.761 439.388 198.051C438.938 199.631 435.708 201.411 433.808 200.761L403.908 190.551C384.618 183.961 364.418 186.161 345.928 193.731C315.968 206.001 293.158 202.361 265.228 188.141V188.151Z" fill="black"/>
<path d="M259.268 227.511C236.608 217.411 212.928 217.591 190.778 227.691C180.228 232.501 169.938 237.591 158.698 240.411C135.278 246.281 112.078 242.841 90.5677 232.861C82.2177 228.981 72.6377 226.561 64.2477 225.191C62.8577 224.961 62.0377 221.381 62.5077 220.211C65.0177 213.981 84.0277 221.321 94.3777 225.891C113.148 234.171 133.328 237.471 153.548 233.401C165.578 230.981 175.628 225.631 186.578 220.631C210.068 209.911 235.998 208.501 259.558 218.771L283.218 229.081C305.478 238.781 330.678 236.771 352.478 226.431C362.958 221.461 381.828 214.521 382.858 220.981C383.298 223.741 381.888 225.211 379.208 226.031L360.068 231.941L337.488 240.421C322.628 244.001 306.658 244.501 291.868 240.421C280.518 237.281 270.368 232.451 259.278 227.511H259.268Z" fill="black"/>
<path d="M18.8781 287.104V317.536H27.0228V324.418H2.58863V317.536H10.7334V287.104H2.58863V280.222H27.0228V287.104H18.8781ZM76.5231 280.222L57.2662 324.418H49.1846L29.8646 280.222H38.767L53.478 314.316L68.3153 280.222H76.5231ZM100.72 279.59C104.677 279.59 108.128 280.369 111.075 281.926C114.021 283.484 116.294 285.799 117.894 288.872C119.535 291.902 120.356 295.585 120.356 299.921V324.418H112.148V313.053H89.166V324.418H81.0844V299.921C81.0844 295.585 81.8842 291.902 83.4836 288.872C85.1252 285.799 87.4192 283.484 90.3656 281.926C93.312 280.369 96.7635 279.59 100.72 279.59ZM112.148 306.171V299.163C112.148 295.08 111.138 292.007 109.117 289.945C107.097 287.84 104.277 286.788 100.657 286.788C97.0371 286.788 94.217 287.84 92.1966 289.945C90.1762 292.007 89.166 295.08 89.166 299.163V306.171H112.148ZM154.394 279.59C159.698 279.59 163.822 281.211 166.769 284.452C169.757 287.693 171.252 292.323 171.252 298.342V324.418H163.044V298.658C163.044 294.743 162.097 291.797 160.203 289.819C158.351 287.798 155.762 286.788 152.437 286.788C148.817 286.788 145.934 287.861 143.787 290.008C141.682 292.113 140.63 295.27 140.63 299.479V324.418H132.422V280.222H140.377V285.778C143.45 281.653 148.122 279.59 154.394 279.59ZM201.353 280.222H220.673C225.387 280.222 229.576 281.148 233.238 283C236.899 284.81 239.741 287.398 241.761 290.766C243.781 294.091 244.792 297.942 244.792 302.32C244.792 306.697 243.781 310.57 241.761 313.937C239.741 317.262 236.899 319.851 233.238 321.703C229.576 323.513 225.387 324.418 220.673 324.418H201.353V280.222ZM220.294 317.473C223.535 317.473 226.377 316.863 228.818 315.642C231.301 314.379 233.195 312.611 234.5 310.338C235.847 308.023 236.521 305.35 236.521 302.32C236.521 299.289 235.847 296.638 234.5 294.365C233.195 292.05 231.301 290.282 228.818 289.061C226.377 287.798 223.535 287.167 220.294 287.167H209.561V317.473H220.294ZM274.746 325.049C270.242 325.049 266.18 324.081 262.56 322.145C258.941 320.167 256.099 317.452 254.037 314C251.974 310.507 250.943 306.613 250.943 302.32C250.943 298.027 251.974 294.154 254.037 290.703C256.099 287.209 258.941 284.494 262.56 282.558C266.18 280.58 270.242 279.59 274.746 279.59C279.25 279.59 283.312 280.58 286.932 282.558C290.551 284.494 293.393 287.188 295.455 290.639C297.518 294.091 298.549 297.984 298.549 302.32C298.549 306.655 297.518 310.549 295.455 314C293.393 317.452 290.551 320.167 286.932 322.145C283.312 324.081 279.25 325.049 274.746 325.049ZM274.746 317.852C277.692 317.852 280.344 317.199 282.701 315.894C285.058 314.547 286.91 312.695 288.257 310.338C289.604 307.939 290.278 305.266 290.278 302.32C290.278 299.373 289.604 296.722 288.257 294.365C286.91 291.965 285.058 290.113 282.701 288.808C280.344 287.462 277.692 286.788 274.746 286.788C271.8 286.788 269.148 287.462 266.791 288.808C264.434 290.113 262.582 291.965 261.235 294.365C259.888 296.722 259.214 299.373 259.214 302.32C259.214 305.266 259.888 307.939 261.235 310.338C262.582 312.695 264.434 314.547 266.791 315.894C269.148 317.199 271.8 317.852 274.746 317.852ZM307.834 280.222H316.041V317.473H339.15V324.418H307.834V280.222ZM365.471 279.59C369.428 279.59 372.879 280.369 375.826 281.926C378.772 283.484 381.045 285.799 382.645 288.872C384.286 291.902 385.107 295.585 385.107 299.921V324.418H376.899V313.053H353.917V324.418H345.835V299.921C345.835 295.585 346.635 291.902 348.235 288.872C349.876 285.799 352.17 283.484 355.117 281.926C358.063 280.369 361.515 279.59 365.471 279.59ZM376.899 306.171V299.163C376.899 295.08 375.889 292.007 373.868 289.945C371.848 287.84 369.028 286.788 365.408 286.788C361.788 286.788 358.968 287.84 356.948 289.945C354.927 292.007 353.917 295.08 353.917 299.163V306.171H376.899ZM417.63 325.049C413.168 325.049 409.127 324.081 405.507 322.145C401.93 320.167 399.109 317.452 397.047 314C395.027 310.549 394.016 306.655 394.016 302.32C394.016 297.984 395.048 294.091 397.11 290.639C399.173 287.188 401.993 284.494 405.57 282.558C409.19 280.58 413.231 279.59 417.693 279.59C421.313 279.59 424.617 280.222 427.605 281.485C430.594 282.747 433.119 284.578 435.182 286.977L429.878 291.965C426.679 288.514 422.744 286.788 418.072 286.788C415.041 286.788 412.326 287.462 409.927 288.808C407.528 290.113 405.655 291.944 404.308 294.301C402.961 296.659 402.287 299.331 402.287 302.32C402.287 305.308 402.961 307.981 404.308 310.338C405.655 312.695 407.528 314.547 409.927 315.894C412.326 317.199 415.041 317.852 418.072 317.852C422.744 317.852 426.679 316.105 429.878 312.611L435.182 317.662C433.119 320.061 430.573 321.892 427.542 323.155C424.554 324.418 421.25 325.049 417.63 325.049Z" fill="black"/>
</svg>
