<svg width="456" height="456" viewBox="0 0 456 456" fill="none" xmlns="http://www.w3.org/2000/svg">
<path d="M374.572 162.857C374.572 260.571 228 374.571 228 374.571C228 374.571 81.4287 260.571 81.4287 162.857C81.4287 83.0245 148.168 16.2856 228 16.2856C307.833 16.2856 374.572 83.0245 374.572 162.857Z" stroke="white" stroke-width="32.5714" stroke-linecap="round" stroke-linejoin="round"/>
<path d="M228 211.714C254.983 211.714 276.857 189.84 276.857 162.857C276.857 135.874 254.983 114 228 114C201.017 114 179.143 135.874 179.143 162.857C179.143 189.84 201.017 211.714 228 211.714Z" stroke="white" stroke-width="32.5714" stroke-linecap="round" stroke-linejoin="round"/>
<path d="M360.803 325.714H390.857L439.714 439.714H16.2856L65.1428 325.714H95.1964" stroke="white" stroke-width="32.5714" stroke-linecap="round" stroke-linejoin="round"/>
</svg>
